<mxfile host="Electron" agent="Mozilla/5.0 (X11; Linux x86_64) AppleWebKit/537.36 (KHTML, like Gecko) draw.io/24.7.8 Chrome/128.0.6613.36 Electron/32.0.1 Safari/537.36" version="24.7.8">
  <diagram name="Page-1" id="nOm0e3-1U3dwyk76CsCB">
    <mxGraphModel dx="1147" dy="776" grid="1" gridSize="10" guides="1" tooltips="1" connect="1" arrows="1" fold="1" page="1" pageScale="1" pageWidth="850" pageHeight="1100" math="0" shadow="0">
      <root>
        <mxCell id="0" />
        <mxCell id="1" parent="0" />
        <mxCell id="CMMlFCxlXndsp2tooIYX-1" value="&lt;b&gt;&lt;font style=&quot;font-size: 16px;&quot;&gt;Data Extraction&lt;/font&gt;&lt;/b&gt;" style="rounded=1;whiteSpace=wrap;html=1;fillColor=#f8cecc;strokeColor=#b85450;" parent="1" vertex="1">
          <mxGeometry x="90" y="180" width="120" height="60" as="geometry" />
        </mxCell>
        <mxCell id="CMMlFCxlXndsp2tooIYX-3" value="&lt;b&gt;&lt;font style=&quot;font-size: 16px;&quot;&gt;Clustering&lt;/font&gt;&lt;/b&gt;" style="rounded=1;whiteSpace=wrap;html=1;fillColor=#f8cecc;strokeColor=#b85450;" parent="1" vertex="1">
          <mxGeometry x="240" y="180" width="120" height="60" as="geometry" />
        </mxCell>
        <mxCell id="CMMlFCxlXndsp2tooIYX-5" value="&lt;b&gt;&lt;font style=&quot;font-size: 16px;&quot;&gt;Data Summarization&lt;/font&gt;&lt;/b&gt;" style="rounded=1;whiteSpace=wrap;html=1;fillColor=#f8cecc;strokeColor=#b85450;" parent="1" vertex="1">
          <mxGeometry x="690" y="180" width="120" height="60" as="geometry" />
        </mxCell>
        <mxCell id="CMMlFCxlXndsp2tooIYX-7" value="&lt;b&gt;&lt;font style=&quot;font-size: 16px;&quot;&gt;Data Extraction&lt;/font&gt;&lt;/b&gt;" style="rounded=1;whiteSpace=wrap;html=1;fillColor=#f8cecc;strokeColor=#b85450;" parent="1" vertex="1">
          <mxGeometry x="90" y="180" width="120" height="60" as="geometry" />
        </mxCell>
        <mxCell id="CMMlFCxlXndsp2tooIYX-8" value="&lt;b&gt;&lt;font style=&quot;font-size: 16px;&quot;&gt;Clustering&lt;/font&gt;&lt;/b&gt;" style="rounded=1;whiteSpace=wrap;html=1;fillColor=#f8cecc;strokeColor=#b85450;" parent="1" vertex="1">
          <mxGeometry x="240" y="180" width="120" height="60" as="geometry" />
        </mxCell>
        <mxCell id="CMMlFCxlXndsp2tooIYX-39" value="" style="group" parent="1" vertex="1" connectable="0">
          <mxGeometry x="108.86999999999999" y="296" width="86.25" height="74" as="geometry" />
        </mxCell>
        <mxCell id="CMMlFCxlXndsp2tooIYX-27" value="" style="image;aspect=fixed;html=1;points=[];align=center;fontSize=12;image=img/lib/azure2/general/Storage_Container.svg;" parent="CMMlFCxlXndsp2tooIYX-39" vertex="1">
          <mxGeometry width="83.828125" height="68.118734375" as="geometry" />
        </mxCell>
        <mxCell id="CMMlFCxlXndsp2tooIYX-30" value="&lt;font size=&quot;1&quot; style=&quot;&quot;&gt;&lt;b style=&quot;font-size: 14px;&quot;&gt;source&lt;/b&gt;&lt;/font&gt;" style="text;html=1;align=left;verticalAlign=middle;whiteSpace=wrap;rounded=0;" parent="CMMlFCxlXndsp2tooIYX-39" vertex="1">
          <mxGeometry x="17.25" y="38.247600295348256" width="51.75" height="17.539256706866848" as="geometry" />
        </mxCell>
        <mxCell id="CMMlFCxlXndsp2tooIYX-50" value="" style="endArrow=classic;html=1;rounded=0;strokeWidth=2;entryX=0.503;entryY=0.005;entryDx=0;entryDy=0;entryPerimeter=0;" parent="1" edge="1">
          <mxGeometry width="50" height="50" relative="1" as="geometry">
            <mxPoint x="449.8" y="240" as="sourcePoint" />
            <mxPoint x="450.1500000000001" y="296.20315000000005" as="targetPoint" />
          </mxGeometry>
        </mxCell>
        <mxCell id="mJmIOjuGYI14fdPZvnlu-1" value="" style="rounded=1;whiteSpace=wrap;html=1;fillColor=#fff2cc;strokeColor=#d6b656;" vertex="1" parent="1">
          <mxGeometry x="77.56" y="140" width="422.44" height="120" as="geometry" />
        </mxCell>
        <mxCell id="CMMlFCxlXndsp2tooIYX-56" value="" style="group" parent="1" vertex="1" connectable="0">
          <mxGeometry x="410" y="296" width="86.25" height="74" as="geometry" />
        </mxCell>
        <mxCell id="CMMlFCxlXndsp2tooIYX-57" value="" style="image;aspect=fixed;html=1;points=[];align=center;fontSize=12;image=img/lib/azure2/general/Storage_Container.svg;" parent="CMMlFCxlXndsp2tooIYX-56" vertex="1">
          <mxGeometry width="83.828125" height="68.118734375" as="geometry" />
        </mxCell>
        <mxCell id="CMMlFCxlXndsp2tooIYX-59" value="&lt;font size=&quot;1&quot; style=&quot;&quot;&gt;&lt;b style=&quot;font-size: 14px;&quot;&gt;cdata&lt;/b&gt;&lt;/font&gt;" style="text;html=1;align=center;verticalAlign=middle;whiteSpace=wrap;rounded=0;" parent="CMMlFCxlXndsp2tooIYX-56" vertex="1">
          <mxGeometry x="17.25" y="38.247600295348256" width="51.75" height="17.539256706866848" as="geometry" />
        </mxCell>
        <mxCell id="CMMlFCxlXndsp2tooIYX-60" value="" style="group" parent="1" vertex="1" connectable="0">
          <mxGeometry x="856" y="296" width="90" height="74" as="geometry" />
        </mxCell>
        <mxCell id="CMMlFCxlXndsp2tooIYX-61" value="" style="image;aspect=fixed;html=1;points=[];align=center;fontSize=12;image=img/lib/azure2/general/Storage_Container.svg;" parent="CMMlFCxlXndsp2tooIYX-60" vertex="1">
          <mxGeometry width="90" height="73.13" as="geometry" />
        </mxCell>
        <mxCell id="CMMlFCxlXndsp2tooIYX-63" value="&lt;font size=&quot;1&quot; style=&quot;&quot;&gt;&lt;b style=&quot;font-size: 14px;&quot;&gt;reports&lt;/b&gt;&lt;/font&gt;" style="text;html=1;align=center;verticalAlign=middle;whiteSpace=wrap;rounded=0;" parent="CMMlFCxlXndsp2tooIYX-60" vertex="1">
          <mxGeometry x="19.25" y="38.247600295348256" width="51.75" height="17.539256706866848" as="geometry" />
        </mxCell>
        <mxCell id="CMMlFCxlXndsp2tooIYX-11" value="&lt;b style=&quot;font-size: 15px;&quot;&gt;&lt;font style=&quot;font-size: 15px;&quot;&gt;Data Extraction&lt;/font&gt;&lt;/b&gt;" style="rounded=1;whiteSpace=wrap;html=1;fillColor=#d5e8d4;strokeColor=#82b366;fontSize=15;" parent="1" vertex="1">
          <mxGeometry x="90" y="180" width="120" height="60" as="geometry" />
        </mxCell>
        <mxCell id="CMMlFCxlXndsp2tooIYX-12" value="&lt;b style=&quot;font-size: 15px;&quot;&gt;&lt;font style=&quot;font-size: 15px;&quot;&gt;Clustering&lt;/font&gt;&lt;/b&gt;" style="rounded=1;whiteSpace=wrap;html=1;fillColor=#f8cecc;strokeColor=#b85450;fontSize=15;" parent="1" vertex="1">
          <mxGeometry x="230" y="180" width="120" height="60" as="geometry" />
        </mxCell>
        <mxCell id="CMMlFCxlXndsp2tooIYX-13" value="&lt;b style=&quot;font-size: 15px;&quot;&gt;&lt;font style=&quot;font-size: 15px;&quot;&gt;Save Clustering Results&lt;/font&gt;&lt;/b&gt;" style="rounded=1;whiteSpace=wrap;html=1;fillColor=#d5e8d4;strokeColor=#82b366;fontSize=15;" parent="1" vertex="1">
          <mxGeometry x="370.25" y="180" width="120" height="60" as="geometry" />
        </mxCell>
        <mxCell id="CMMlFCxlXndsp2tooIYX-21" value="" style="endArrow=classic;html=1;rounded=0;exitX=1;exitY=0.5;exitDx=0;exitDy=0;entryX=0;entryY=0.5;entryDx=0;entryDy=0;strokeWidth=2;" parent="1" source="CMMlFCxlXndsp2tooIYX-11" target="CMMlFCxlXndsp2tooIYX-12" edge="1">
          <mxGeometry width="50" height="50" relative="1" as="geometry">
            <mxPoint x="190" y="300" as="sourcePoint" />
            <mxPoint x="240" y="250" as="targetPoint" />
          </mxGeometry>
        </mxCell>
        <mxCell id="mJmIOjuGYI14fdPZvnlu-2" value="&lt;div style=&quot;font-family: &amp;quot;Droid Sans Mono&amp;quot;, &amp;quot;monospace&amp;quot;, monospace; line-height: 20px; white-space: pre;&quot;&gt;&lt;div style=&quot;&quot;&gt;&lt;b style=&quot;&quot;&gt;&lt;font style=&quot;font-size: 16px;&quot;&gt;extract_cluster_save&lt;/font&gt;&lt;/b&gt;&lt;/div&gt;&lt;/div&gt;" style="text;html=1;align=center;verticalAlign=middle;whiteSpace=wrap;rounded=0;" vertex="1" parent="1">
          <mxGeometry x="270" y="145" width="60" height="30" as="geometry" />
        </mxCell>
        <mxCell id="mJmIOjuGYI14fdPZvnlu-4" value="" style="rounded=1;whiteSpace=wrap;html=1;fillColor=#fff2cc;strokeColor=#d6b656;" vertex="1" parent="1">
          <mxGeometry x="543" y="140" width="420" height="120" as="geometry" />
        </mxCell>
        <mxCell id="mJmIOjuGYI14fdPZvnlu-5" value="&lt;div style=&quot;font-family: &amp;quot;Droid Sans Mono&amp;quot;, &amp;quot;monospace&amp;quot;, monospace; line-height: 20px; white-space: pre;&quot;&gt;&lt;div style=&quot;&quot;&gt;&lt;div style=&quot;line-height: 20px;&quot;&gt;&lt;font style=&quot;font-size: 16px;&quot;&gt;&lt;b&gt;extract_summarize&lt;/b&gt;&lt;/font&gt;&lt;/div&gt;&lt;/div&gt;&lt;/div&gt;" style="text;html=1;align=center;verticalAlign=middle;whiteSpace=wrap;rounded=0;" vertex="1" parent="1">
          <mxGeometry x="723" y="145" width="60" height="30" as="geometry" />
        </mxCell>
        <mxCell id="CMMlFCxlXndsp2tooIYX-6" value="&lt;b style=&quot;font-size: 15px;&quot;&gt;&lt;font style=&quot;font-size: 15px;&quot;&gt;Save Summarization Results&lt;/font&gt;&lt;/b&gt;" style="rounded=1;whiteSpace=wrap;html=1;fillColor=#d5e8d4;strokeColor=#82b366;fontSize=15;" parent="1" vertex="1">
          <mxGeometry x="833" y="180" width="120" height="60" as="geometry" />
        </mxCell>
        <mxCell id="CMMlFCxlXndsp2tooIYX-15" value="&lt;b style=&quot;font-size: 15px;&quot;&gt;&lt;font style=&quot;font-size: 15px;&quot;&gt;Data Summarization&lt;/font&gt;&lt;/b&gt;" style="rounded=1;whiteSpace=wrap;html=1;fillColor=#f8cecc;strokeColor=#b85450;fontSize=15;" parent="1" vertex="1">
          <mxGeometry x="693" y="180" width="120" height="60" as="geometry" />
        </mxCell>
        <mxCell id="CMMlFCxlXndsp2tooIYX-14" value="&lt;b style=&quot;font-size: 15px;&quot;&gt;&lt;font style=&quot;font-size: 15px;&quot;&gt;Clustered Data Extraction&lt;/font&gt;&lt;/b&gt;" style="rounded=1;whiteSpace=wrap;html=1;fillColor=#d5e8d4;strokeColor=#82b366;fontSize=15;" parent="1" vertex="1">
          <mxGeometry x="553" y="180" width="120" height="60" as="geometry" />
        </mxCell>
        <mxCell id="CMMlFCxlXndsp2tooIYX-25" value="" style="endArrow=classic;html=1;rounded=0;exitX=1;exitY=0.5;exitDx=0;exitDy=0;strokeWidth=2;" parent="1" edge="1">
          <mxGeometry width="50" height="50" relative="1" as="geometry">
            <mxPoint x="500" y="210" as="sourcePoint" />
            <mxPoint x="543" y="210" as="targetPoint" />
          </mxGeometry>
        </mxCell>
        <mxCell id="mJmIOjuGYI14fdPZvnlu-6" value="" style="endArrow=classic;html=1;rounded=0;exitX=1;exitY=0.5;exitDx=0;exitDy=0;entryX=0;entryY=0.5;entryDx=0;entryDy=0;strokeWidth=2;" edge="1" parent="1">
          <mxGeometry width="50" height="50" relative="1" as="geometry">
            <mxPoint x="350" y="209.86" as="sourcePoint" />
            <mxPoint x="370" y="209.86" as="targetPoint" />
          </mxGeometry>
        </mxCell>
        <mxCell id="mJmIOjuGYI14fdPZvnlu-7" value="" style="endArrow=classic;html=1;rounded=0;exitX=1;exitY=0.5;exitDx=0;exitDy=0;entryX=0;entryY=0.5;entryDx=0;entryDy=0;strokeWidth=2;" edge="1" parent="1">
          <mxGeometry width="50" height="50" relative="1" as="geometry">
            <mxPoint x="673" y="209.86" as="sourcePoint" />
            <mxPoint x="693" y="209.86" as="targetPoint" />
          </mxGeometry>
        </mxCell>
        <mxCell id="mJmIOjuGYI14fdPZvnlu-8" value="" style="endArrow=classic;html=1;rounded=0;exitX=1;exitY=0.5;exitDx=0;exitDy=0;entryX=0;entryY=0.5;entryDx=0;entryDy=0;strokeWidth=2;" edge="1" parent="1">
          <mxGeometry width="50" height="50" relative="1" as="geometry">
            <mxPoint x="813" y="209.86" as="sourcePoint" />
            <mxPoint x="833" y="209.86" as="targetPoint" />
          </mxGeometry>
        </mxCell>
        <mxCell id="CMMlFCxlXndsp2tooIYX-51" value="" style="endArrow=classic;html=1;rounded=0;strokeWidth=2;exitX=0.992;exitY=0.507;exitDx=0;exitDy=0;exitPerimeter=0;" parent="1" source="CMMlFCxlXndsp2tooIYX-57" edge="1">
          <mxGeometry width="50" height="50" relative="1" as="geometry">
            <mxPoint x="530" y="320" as="sourcePoint" />
            <mxPoint x="599.8" y="240" as="targetPoint" />
            <Array as="points">
              <mxPoint x="600" y="330" />
            </Array>
          </mxGeometry>
        </mxCell>
        <mxCell id="CMMlFCxlXndsp2tooIYX-49" value="" style="endArrow=classic;html=1;rounded=0;strokeWidth=2;exitX=0.478;exitY=-0.016;exitDx=0;exitDy=0;exitPerimeter=0;" parent="1" source="CMMlFCxlXndsp2tooIYX-27" edge="1">
          <mxGeometry width="50" height="50" relative="1" as="geometry">
            <mxPoint x="149" y="280" as="sourcePoint" />
            <mxPoint x="149" y="240" as="targetPoint" />
          </mxGeometry>
        </mxCell>
        <mxCell id="CMMlFCxlXndsp2tooIYX-52" value="" style="endArrow=classic;html=1;rounded=0;strokeWidth=2;entryX=0.5;entryY=0.001;entryDx=0;entryDy=0;entryPerimeter=0;" parent="1" edge="1">
          <mxGeometry width="50" height="50" relative="1" as="geometry">
            <mxPoint x="899.86" y="240" as="sourcePoint" />
            <mxPoint x="900" y="296.04062999999996" as="targetPoint" />
          </mxGeometry>
        </mxCell>
      </root>
    </mxGraphModel>
  </diagram>
</mxfile>
